<mxfile host="Electron" agent="Mozilla/5.0 (Windows NT 10.0; Win64; x64) AppleWebKit/537.36 (KHTML, like Gecko) draw.io/24.7.17 Chrome/128.0.6613.36 Electron/32.0.1 Safari/537.36" version="24.7.17">
  <diagram id="C5RBs43oDa-KdzZeNtuy" name="Page-1">
    <mxGraphModel dx="2065" dy="863" grid="1" gridSize="10" guides="1" tooltips="1" connect="1" arrows="1" fold="1" page="1" pageScale="1" pageWidth="827" pageHeight="1169" math="0" shadow="0">
      <root>
        <mxCell id="WIyWlLk6GJQsqaUBKTNV-0" />
        <mxCell id="WIyWlLk6GJQsqaUBKTNV-1" parent="WIyWlLk6GJQsqaUBKTNV-0" />
        <mxCell id="ZD9x9Xp-bdUePuYkmJ0l-55" value="" style="ellipse;shape=doubleEllipse;whiteSpace=wrap;html=1;" vertex="1" parent="WIyWlLk6GJQsqaUBKTNV-1">
          <mxGeometry x="-827" y="5.51" width="80" height="50" as="geometry" />
        </mxCell>
        <mxCell id="ADcIj5KVkcMFT8tYfSTf-130" value="" style="ellipse;whiteSpace=wrap;html=1;" parent="WIyWlLk6GJQsqaUBKTNV-1" vertex="1">
          <mxGeometry x="10" y="120" width="490" height="360" as="geometry" />
        </mxCell>
        <mxCell id="ADcIj5KVkcMFT8tYfSTf-166" value="" style="ellipse;shape=doubleEllipse;whiteSpace=wrap;html=1;" parent="WIyWlLk6GJQsqaUBKTNV-1" vertex="1">
          <mxGeometry x="677" y="80" width="80" height="50" as="geometry" />
        </mxCell>
        <mxCell id="ADcIj5KVkcMFT8tYfSTf-165" value="" style="ellipse;shape=doubleEllipse;whiteSpace=wrap;html=1;" parent="WIyWlLk6GJQsqaUBKTNV-1" vertex="1">
          <mxGeometry x="185" y="810" width="80" height="50" as="geometry" />
        </mxCell>
        <mxCell id="ADcIj5KVkcMFT8tYfSTf-164" value="" style="ellipse;shape=doubleEllipse;whiteSpace=wrap;html=1;" parent="WIyWlLk6GJQsqaUBKTNV-1" vertex="1">
          <mxGeometry x="577" y="810" width="80" height="50" as="geometry" />
        </mxCell>
        <mxCell id="ADcIj5KVkcMFT8tYfSTf-163" value="" style="ellipse;shape=doubleEllipse;whiteSpace=wrap;html=1;" parent="WIyWlLk6GJQsqaUBKTNV-1" vertex="1">
          <mxGeometry x="233" y="627.5" width="80" height="50" as="geometry" />
        </mxCell>
        <mxCell id="ADcIj5KVkcMFT8tYfSTf-162" value="" style="ellipse;shape=doubleEllipse;whiteSpace=wrap;html=1;" parent="WIyWlLk6GJQsqaUBKTNV-1" vertex="1">
          <mxGeometry x="560" y="420" width="80" height="50" as="geometry" />
        </mxCell>
        <mxCell id="ADcIj5KVkcMFT8tYfSTf-161" value="" style="ellipse;shape=doubleEllipse;whiteSpace=wrap;html=1;" parent="WIyWlLk6GJQsqaUBKTNV-1" vertex="1">
          <mxGeometry x="90" y="470" width="80" height="50" as="geometry" />
        </mxCell>
        <mxCell id="ADcIj5KVkcMFT8tYfSTf-160" value="" style="ellipse;shape=doubleEllipse;whiteSpace=wrap;html=1;" parent="WIyWlLk6GJQsqaUBKTNV-1" vertex="1">
          <mxGeometry x="30" y="10" width="80" height="50" as="geometry" />
        </mxCell>
        <mxCell id="ADcIj5KVkcMFT8tYfSTf-158" value="" style="ellipse;shape=doubleEllipse;whiteSpace=wrap;html=1;" parent="WIyWlLk6GJQsqaUBKTNV-1" vertex="1">
          <mxGeometry x="580" y="270" width="80" height="50" as="geometry" />
        </mxCell>
        <mxCell id="ADcIj5KVkcMFT8tYfSTf-57" value="&lt;font style=&quot;font-size: 26px;&quot;&gt;&lt;span style=&quot;font-size: 26px;&quot;&gt;dwh_delta&lt;/span&gt;&lt;/font&gt;" style="rhombus;whiteSpace=wrap;html=1;shadow=0;fontFamily=Helvetica;fontSize=26;align=center;strokeWidth=4;spacing=6;spacingTop=-4;fontStyle=1" parent="WIyWlLk6GJQsqaUBKTNV-1" vertex="1">
          <mxGeometry x="308" y="260" width="272" height="210" as="geometry" />
        </mxCell>
        <mxCell id="ADcIj5KVkcMFT8tYfSTf-58" value="&lt;span style=&quot;text-wrap: nowrap; font-size: 14px;&quot;&gt;&lt;b style=&quot;&quot;&gt;&lt;font style=&quot;font-size: 14px;&quot;&gt;Создать таблицу&lt;/font&gt;&lt;/b&gt;&lt;/span&gt;&lt;div style=&quot;font-size: 14px;&quot;&gt;&lt;span style=&quot;text-wrap: nowrap;&quot;&gt;&lt;b style=&quot;&quot;&gt;&lt;font style=&quot;font-size: 14px;&quot;&gt;&amp;nbsp;с данными,&lt;/font&gt;&lt;/b&gt;&lt;/span&gt;&lt;div style=&quot;&quot;&gt;&lt;span style=&quot;text-wrap: nowrap;&quot;&gt;&lt;b style=&quot;&quot;&gt;&lt;font style=&quot;font-size: 14px;&quot;&gt;&amp;nbsp;которые нужно&amp;nbsp;&lt;/font&gt;&lt;/b&gt;&lt;/span&gt;&lt;/div&gt;&lt;div style=&quot;&quot;&gt;&lt;span style=&quot;text-wrap: nowrap;&quot;&gt;&lt;b style=&quot;&quot;&gt;&lt;font style=&quot;font-size: 14px;&quot;&gt;только обновить&lt;/font&gt;&lt;/b&gt;&lt;/span&gt;&lt;br&gt;&lt;/div&gt;&lt;/div&gt;" style="text;strokeColor=none;align=center;fillColor=none;html=1;verticalAlign=middle;whiteSpace=wrap;rounded=0;fontSize=7;" parent="WIyWlLk6GJQsqaUBKTNV-1" vertex="1">
          <mxGeometry x="110" y="540" width="60" height="30" as="geometry" />
        </mxCell>
        <mxCell id="ADcIj5KVkcMFT8tYfSTf-59" value="&lt;div style=&quot;font-size: 16px;&quot;&gt;&lt;div style=&quot;&quot;&gt;&lt;span style=&quot;text-wrap: nowrap;&quot;&gt;&lt;b&gt;Выполнить расчёт&amp;nbsp;&lt;/b&gt;&lt;/span&gt;&lt;/div&gt;&lt;div style=&quot;&quot;&gt;&lt;span style=&quot;text-wrap: nowrap;&quot;&gt;&lt;b&gt;витрины только&lt;/b&gt;&lt;/span&gt;&lt;/div&gt;&lt;div style=&quot;&quot;&gt;&lt;span style=&quot;text-wrap: nowrap;&quot;&gt;&lt;b&gt;&amp;nbsp;для данных,&lt;/b&gt;&lt;/span&gt;&lt;/div&gt;&lt;div style=&quot;&quot;&gt;&lt;span style=&quot;text-wrap: nowrap;&quot;&gt;&lt;b&gt;&amp;nbsp;которые нужно&amp;nbsp;&lt;/b&gt;&lt;/span&gt;&lt;/div&gt;&lt;div style=&quot;&quot;&gt;&lt;span style=&quot;text-wrap: nowrap;&quot;&gt;&lt;b&gt;вставить&lt;/b&gt;&lt;/span&gt;&lt;br&gt;&lt;/div&gt;&lt;/div&gt;" style="text;strokeColor=none;align=center;fillColor=none;html=1;verticalAlign=middle;whiteSpace=wrap;rounded=0;fontSize=7;strokeWidth=9;" parent="WIyWlLk6GJQsqaUBKTNV-1" vertex="1">
          <mxGeometry x="697" y="460" width="60" height="30" as="geometry" />
        </mxCell>
        <mxCell id="ADcIj5KVkcMFT8tYfSTf-60" value="&lt;div style=&quot;font-size: 14px;&quot;&gt;&lt;div style=&quot;&quot;&gt;&lt;span style=&quot;text-wrap: nowrap;&quot;&gt;&lt;b&gt;&amp;nbsp;Выполнить расчёт&lt;/b&gt;&lt;/span&gt;&lt;/div&gt;&lt;div style=&quot;&quot;&gt;&lt;span style=&quot;text-wrap: nowrap;&quot;&gt;&lt;b&gt;&amp;nbsp;витрины для данных,&lt;/b&gt;&lt;/span&gt;&lt;/div&gt;&lt;div style=&quot;&quot;&gt;&lt;span style=&quot;text-wrap: nowrap;&quot;&gt;&lt;b&gt;&amp;nbsp;которые нужно&amp;nbsp;&lt;/b&gt;&lt;/span&gt;&lt;/div&gt;&lt;div style=&quot;&quot;&gt;&lt;span style=&quot;text-wrap: nowrap;&quot;&gt;&lt;b&gt;обновить&lt;/b&gt;&lt;/span&gt;&lt;br&gt;&lt;/div&gt;&lt;/div&gt;" style="text;strokeColor=none;align=center;fillColor=none;html=1;verticalAlign=middle;whiteSpace=wrap;rounded=0;fontSize=7;" parent="WIyWlLk6GJQsqaUBKTNV-1" vertex="1">
          <mxGeometry x="110.00000000000003" y="655" width="60" height="30" as="geometry" />
        </mxCell>
        <mxCell id="ADcIj5KVkcMFT8tYfSTf-61" value="&lt;div style=&quot;font-size: 12px;&quot;&gt;&lt;div style=&quot;&quot;&gt;&lt;span style=&quot;text-wrap: nowrap;&quot;&gt;&lt;b&gt;Вставить новые&lt;/b&gt;&lt;/span&gt;&lt;/div&gt;&lt;div style=&quot;&quot;&gt;&lt;span style=&quot;text-wrap: nowrap;&quot;&gt;&lt;b&gt;рассчитанные&lt;/b&gt;&lt;/span&gt;&lt;/div&gt;&lt;div style=&quot;&quot;&gt;&lt;span style=&quot;text-wrap: nowrap;&quot;&gt;&lt;b&gt;&amp;nbsp;данные&amp;nbsp; в витрину&lt;/b&gt;&lt;/span&gt;&lt;br&gt;&lt;/div&gt;&lt;/div&gt;" style="text;strokeColor=none;align=center;fillColor=none;html=1;verticalAlign=middle;whiteSpace=wrap;rounded=0;fontSize=7;" parent="WIyWlLk6GJQsqaUBKTNV-1" vertex="1">
          <mxGeometry x="597" y="877.5" width="60" height="30" as="geometry" />
        </mxCell>
        <mxCell id="ADcIj5KVkcMFT8tYfSTf-62" value="&lt;div style=&quot;font-size: 12px;&quot;&gt;&lt;div style=&quot;&quot;&gt;&lt;span style=&quot;text-wrap: nowrap;&quot;&gt;&lt;b&gt;Выполнить обновление&lt;/b&gt;&lt;/span&gt;&lt;/div&gt;&lt;div style=&quot;&quot;&gt;&lt;span style=&quot;text-wrap: nowrap;&quot;&gt;&lt;b&gt;&amp;nbsp;изменённых&lt;/b&gt;&lt;/span&gt;&lt;/div&gt;&lt;div style=&quot;&quot;&gt;&lt;span style=&quot;text-wrap: nowrap;&quot;&gt;&lt;b&gt;&amp;nbsp;данных в витрине**&lt;/b&gt;&lt;/span&gt;&lt;br&gt;&lt;/div&gt;&lt;/div&gt;" style="text;strokeColor=none;align=center;fillColor=none;html=1;verticalAlign=middle;whiteSpace=wrap;rounded=0;fontSize=7;" parent="WIyWlLk6GJQsqaUBKTNV-1" vertex="1">
          <mxGeometry x="178.00000000000006" y="877.5" width="60" height="30" as="geometry" />
        </mxCell>
        <mxCell id="ADcIj5KVkcMFT8tYfSTf-63" value="&lt;font size=&quot;1&quot; style=&quot;&quot;&gt;&lt;b style=&quot;font-size: 18px;&quot;&gt;dwh_update_delta&lt;/b&gt;&lt;/font&gt;" style="rounded=1;whiteSpace=wrap;html=1;fontSize=12;glass=0;strokeWidth=1;shadow=0;" parent="WIyWlLk6GJQsqaUBKTNV-1" vertex="1">
          <mxGeometry x="238" y="520" width="232" height="90" as="geometry" />
        </mxCell>
        <mxCell id="ADcIj5KVkcMFT8tYfSTf-64" value="&lt;font size=&quot;1&quot; style=&quot;&quot;&gt;&lt;b style=&quot;font-size: 18px;&quot;&gt;dwh_delta_insert_result&lt;/b&gt;&lt;/font&gt;" style="rounded=1;whiteSpace=wrap;html=1;fontSize=12;glass=0;strokeWidth=1;shadow=0;" parent="WIyWlLk6GJQsqaUBKTNV-1" vertex="1">
          <mxGeometry x="447" y="730" width="240" height="80" as="geometry" />
        </mxCell>
        <mxCell id="ADcIj5KVkcMFT8tYfSTf-65" value="&lt;font size=&quot;1&quot; style=&quot;&quot;&gt;&lt;b style=&quot;font-size: 19px;&quot;&gt;dwh_delta_update_result&lt;/b&gt;&lt;/font&gt;" style="rounded=1;whiteSpace=wrap;html=1;fontSize=12;glass=0;strokeWidth=1;shadow=0;" parent="WIyWlLk6GJQsqaUBKTNV-1" vertex="1">
          <mxGeometry x="188" y="730" width="240" height="75" as="geometry" />
        </mxCell>
        <mxCell id="ADcIj5KVkcMFT8tYfSTf-66" value="&lt;b style=&quot;font-size: 26px;&quot;&gt;customer&lt;/b&gt;&lt;b style=&quot;&quot;&gt;&lt;font style=&quot;font-size: 28px;&quot;&gt;_report_datamart&lt;/font&gt;&lt;/b&gt;" style="rounded=1;whiteSpace=wrap;html=1;arcSize=50;strokeWidth=4;" parent="WIyWlLk6GJQsqaUBKTNV-1" vertex="1">
          <mxGeometry x="207" y="1000" width="450" height="110" as="geometry" />
        </mxCell>
        <mxCell id="ADcIj5KVkcMFT8tYfSTf-70" value="" style="shape=singleArrow;direction=south;whiteSpace=wrap;html=1;" parent="WIyWlLk6GJQsqaUBKTNV-1" vertex="1">
          <mxGeometry x="258" y="805" width="170" height="195" as="geometry" />
        </mxCell>
        <mxCell id="ADcIj5KVkcMFT8tYfSTf-71" value="&lt;font style=&quot;font-size: 16px;&quot;&gt;UPDATE&lt;/font&gt;&lt;div&gt;&lt;font style=&quot;font-size: 16px;&quot;&gt;delta&lt;/font&gt;&lt;/div&gt;" style="text;strokeColor=none;align=center;fillColor=none;html=1;verticalAlign=middle;whiteSpace=wrap;rounded=0;rotation=270;" parent="WIyWlLk6GJQsqaUBKTNV-1" vertex="1">
          <mxGeometry x="290.5" y="869" width="105" height="65" as="geometry" />
        </mxCell>
        <mxCell id="ADcIj5KVkcMFT8tYfSTf-72" value="" style="shape=singleArrow;direction=south;whiteSpace=wrap;html=1;" parent="WIyWlLk6GJQsqaUBKTNV-1" vertex="1">
          <mxGeometry x="427" y="810" width="171" height="190" as="geometry" />
        </mxCell>
        <mxCell id="ADcIj5KVkcMFT8tYfSTf-73" value="&lt;font style=&quot;font-size: 19px;&quot;&gt;&lt;font style=&quot;font-size: 19px;&quot;&gt;INSERT &lt;/font&gt;&lt;font style=&quot;font-size: 19px;&quot;&gt;delta&lt;/font&gt;&lt;/font&gt;" style="text;strokeColor=none;align=center;fillColor=none;html=1;verticalAlign=middle;whiteSpace=wrap;rounded=0;rotation=270;" parent="WIyWlLk6GJQsqaUBKTNV-1" vertex="1">
          <mxGeometry x="460.5" y="860" width="105" height="65" as="geometry" />
        </mxCell>
        <mxCell id="ADcIj5KVkcMFT8tYfSTf-74" value="" style="shape=singleArrow;direction=south;whiteSpace=wrap;html=1;" parent="WIyWlLk6GJQsqaUBKTNV-1" vertex="1">
          <mxGeometry x="270" y="610" width="138" height="120" as="geometry" />
        </mxCell>
        <mxCell id="ADcIj5KVkcMFT8tYfSTf-75" value="&lt;font style=&quot;font-size: 18px;&quot;&gt;CALC&lt;/font&gt;" style="text;strokeColor=none;align=center;fillColor=none;html=1;verticalAlign=middle;whiteSpace=wrap;rounded=0;rotation=270;" parent="WIyWlLk6GJQsqaUBKTNV-1" vertex="1">
          <mxGeometry x="286.5" y="637.5" width="105" height="65" as="geometry" />
        </mxCell>
        <mxCell id="ADcIj5KVkcMFT8tYfSTf-78" value="&lt;font size=&quot;1&quot; style=&quot;&quot;&gt;&lt;b style=&quot;font-size: 26px;&quot;&gt;load_dates_customer_report_datamart&lt;/b&gt;&lt;/font&gt;" style="rounded=1;whiteSpace=wrap;html=1;arcSize=50;strokeWidth=3;" parent="WIyWlLk6GJQsqaUBKTNV-1" vertex="1">
          <mxGeometry x="140" y="50" width="517" height="90" as="geometry" />
        </mxCell>
        <mxCell id="ADcIj5KVkcMFT8tYfSTf-79" value="&lt;font style=&quot;font-size: 14px;&quot;&gt;Создать дополнительную таблицу&lt;/font&gt;" style="text;strokeColor=none;align=center;fillColor=none;html=1;verticalAlign=middle;whiteSpace=wrap;rounded=0;" parent="WIyWlLk6GJQsqaUBKTNV-1" vertex="1">
          <mxGeometry x="43" y="70" width="60" height="30" as="geometry" />
        </mxCell>
        <mxCell id="ADcIj5KVkcMFT8tYfSTf-80" value="&lt;div style=&quot;font-size: 14px;&quot;&gt;&lt;div style=&quot;&quot;&gt;&lt;div&gt;&lt;span style=&quot;text-wrap: nowrap;&quot;&gt;&lt;b&gt;Вставить крайние даты&lt;/b&gt;&lt;/span&gt;&lt;/div&gt;&lt;div&gt;&lt;span style=&quot;text-wrap: nowrap;&quot;&gt;&lt;b&gt;&amp;nbsp;загрузок&amp;nbsp; после&lt;/b&gt;&lt;/span&gt;&lt;/div&gt;&lt;div&gt;&lt;span style=&quot;text-wrap: nowrap;&quot;&gt;&lt;b&gt;&amp;nbsp;обновления витрины&lt;/b&gt;&lt;/span&gt;&lt;/div&gt;&lt;/div&gt;&lt;/div&gt;" style="text;strokeColor=none;align=center;fillColor=none;html=1;verticalAlign=middle;whiteSpace=wrap;rounded=0;fontSize=8;" parent="WIyWlLk6GJQsqaUBKTNV-1" vertex="1">
          <mxGeometry x="679.9999999999999" y="160" width="60" height="30" as="geometry" />
        </mxCell>
        <mxCell id="ADcIj5KVkcMFT8tYfSTf-82" value="&lt;font style=&quot;font-size: 18px;&quot;&gt;INSERT&lt;/font&gt;" style="text;strokeColor=none;align=center;fillColor=none;html=1;verticalAlign=middle;whiteSpace=wrap;rounded=0;rotation=105;" parent="WIyWlLk6GJQsqaUBKTNV-1" vertex="1">
          <mxGeometry x="530" y="214.26" width="96.96" height="68.24" as="geometry" />
        </mxCell>
        <mxCell id="ADcIj5KVkcMFT8tYfSTf-83" value="" style="shape=flexArrow;endArrow=classic;html=1;rounded=0;entryX=0.377;entryY=-0.007;entryDx=0;entryDy=0;entryPerimeter=0;" parent="WIyWlLk6GJQsqaUBKTNV-1" target="ADcIj5KVkcMFT8tYfSTf-63" edge="1">
          <mxGeometry width="50" height="50" relative="1" as="geometry">
            <mxPoint x="390.5" y="430" as="sourcePoint" />
            <mxPoint x="333.5" y="497.5" as="targetPoint" />
          </mxGeometry>
        </mxCell>
        <mxCell id="ADcIj5KVkcMFT8tYfSTf-84" value="" style="shape=flexArrow;endArrow=classic;html=1;rounded=0;exitX=0.654;exitY=0.844;exitDx=0;exitDy=0;exitPerimeter=0;" parent="WIyWlLk6GJQsqaUBKTNV-1" source="ADcIj5KVkcMFT8tYfSTf-57" edge="1">
          <mxGeometry width="50" height="50" relative="1" as="geometry">
            <mxPoint x="476" y="450" as="sourcePoint" />
            <mxPoint x="530" y="720" as="targetPoint" />
          </mxGeometry>
        </mxCell>
        <mxCell id="ADcIj5KVkcMFT8tYfSTf-85" value="&lt;font style=&quot;font-size: 16px;&quot;&gt;CALC&lt;/font&gt;" style="text;strokeColor=none;align=center;fillColor=none;html=1;verticalAlign=middle;whiteSpace=wrap;rounded=0;rotation=-100;" parent="WIyWlLk6GJQsqaUBKTNV-1" vertex="1">
          <mxGeometry x="473" y="530" width="97" height="27.5" as="geometry" />
        </mxCell>
        <mxCell id="ADcIj5KVkcMFT8tYfSTf-89" value="" style="ellipse;whiteSpace=wrap;html=1;" parent="WIyWlLk6GJQsqaUBKTNV-1" vertex="1">
          <mxGeometry x="10" y="160" width="87" height="60" as="geometry" />
        </mxCell>
        <mxCell id="ADcIj5KVkcMFT8tYfSTf-108" style="edgeStyle=orthogonalEdgeStyle;rounded=0;orthogonalLoop=1;jettySize=auto;html=1;entryX=0.456;entryY=0.038;entryDx=0;entryDy=0;entryPerimeter=0;exitX=1;exitY=1;exitDx=0;exitDy=0;" parent="WIyWlLk6GJQsqaUBKTNV-1" source="ADcIj5KVkcMFT8tYfSTf-90" target="ADcIj5KVkcMFT8tYfSTf-57" edge="1">
          <mxGeometry relative="1" as="geometry">
            <mxPoint x="192.08753478251765" y="216.99" as="sourcePoint" />
            <mxPoint x="432" y="256.99" as="targetPoint" />
            <Array as="points">
              <mxPoint x="80" y="217" />
              <mxPoint x="432" y="217" />
            </Array>
          </mxGeometry>
        </mxCell>
        <mxCell id="ADcIj5KVkcMFT8tYfSTf-90" value="&lt;font style=&quot;font-size: 14px;&quot;&gt;f_order&lt;/font&gt;" style="text;strokeColor=none;align=center;fillColor=none;html=1;verticalAlign=middle;whiteSpace=wrap;rounded=0;" parent="WIyWlLk6GJQsqaUBKTNV-1" vertex="1">
          <mxGeometry x="29.5" y="173.75" width="50.5" height="36.25" as="geometry" />
        </mxCell>
        <mxCell id="ADcIj5KVkcMFT8tYfSTf-91" value="" style="ellipse;whiteSpace=wrap;html=1;" parent="WIyWlLk6GJQsqaUBKTNV-1" vertex="1">
          <mxGeometry x="16" y="232.5" width="87" height="60" as="geometry" />
        </mxCell>
        <mxCell id="ADcIj5KVkcMFT8tYfSTf-92" value="" style="ellipse;whiteSpace=wrap;html=1;" parent="WIyWlLk6GJQsqaUBKTNV-1" vertex="1">
          <mxGeometry x="10" y="300" width="87" height="60" as="geometry" />
        </mxCell>
        <mxCell id="ADcIj5KVkcMFT8tYfSTf-93" value="" style="ellipse;whiteSpace=wrap;html=1;" parent="WIyWlLk6GJQsqaUBKTNV-1" vertex="1">
          <mxGeometry x="10" y="370" width="87" height="60" as="geometry" />
        </mxCell>
        <mxCell id="ADcIj5KVkcMFT8tYfSTf-94" value="&lt;font style=&quot;font-size: 13px;&quot;&gt;d_craftsman&lt;/font&gt;" style="text;strokeColor=none;align=center;fillColor=none;html=1;verticalAlign=middle;whiteSpace=wrap;rounded=0;" parent="WIyWlLk6GJQsqaUBKTNV-1" vertex="1">
          <mxGeometry x="29.5" y="250" width="60" height="32.5" as="geometry" />
        </mxCell>
        <mxCell id="ADcIj5KVkcMFT8tYfSTf-95" value="&lt;font style=&quot;font-size: 14px;&quot;&gt;d_customer&lt;/font&gt;" style="text;strokeColor=none;align=center;fillColor=none;html=1;verticalAlign=middle;whiteSpace=wrap;rounded=0;" parent="WIyWlLk6GJQsqaUBKTNV-1" vertex="1">
          <mxGeometry x="23.5" y="310" width="60" height="32.5" as="geometry" />
        </mxCell>
        <mxCell id="ADcIj5KVkcMFT8tYfSTf-96" value="&lt;font style=&quot;font-size: 14px;&quot;&gt;d_product&lt;/font&gt;" style="text;strokeColor=none;align=center;fillColor=none;html=1;verticalAlign=middle;whiteSpace=wrap;rounded=0;" parent="WIyWlLk6GJQsqaUBKTNV-1" vertex="1">
          <mxGeometry x="23.5" y="383.75" width="60" height="32.5" as="geometry" />
        </mxCell>
        <mxCell id="ADcIj5KVkcMFT8tYfSTf-97" value="" style="ellipse;whiteSpace=wrap;html=1;" parent="WIyWlLk6GJQsqaUBKTNV-1" vertex="1">
          <mxGeometry x="210" y="226.88" width="208" height="65.62" as="geometry" />
        </mxCell>
        <mxCell id="ADcIj5KVkcMFT8tYfSTf-98" value="&lt;b style=&quot;font-size: 15px;&quot;&gt;customer_report_datamart&lt;/b&gt;" style="text;strokeColor=none;align=center;fillColor=none;html=1;verticalAlign=middle;whiteSpace=wrap;rounded=0;" parent="WIyWlLk6GJQsqaUBKTNV-1" vertex="1">
          <mxGeometry x="286.5" y="243.44" width="60" height="32.5" as="geometry" />
        </mxCell>
        <mxCell id="ADcIj5KVkcMFT8tYfSTf-106" style="edgeStyle=orthogonalEdgeStyle;rounded=0;orthogonalLoop=1;jettySize=auto;html=1;exitX=1;exitY=0.5;exitDx=0;exitDy=0;entryX=0.049;entryY=0.433;entryDx=0;entryDy=0;entryPerimeter=0;" parent="WIyWlLk6GJQsqaUBKTNV-1" source="ADcIj5KVkcMFT8tYfSTf-91" target="ADcIj5KVkcMFT8tYfSTf-57" edge="1">
          <mxGeometry relative="1" as="geometry" />
        </mxCell>
        <mxCell id="ADcIj5KVkcMFT8tYfSTf-115" value="" style="edgeStyle=elbowEdgeStyle;elbow=vertical;endArrow=classic;html=1;curved=0;rounded=0;endSize=8;startSize=8;exitX=0.633;exitY=0.484;exitDx=0;exitDy=0;exitPerimeter=0;entryX=0;entryY=0;entryDx=0;entryDy=0;" parent="WIyWlLk6GJQsqaUBKTNV-1" source="ADcIj5KVkcMFT8tYfSTf-130" target="ADcIj5KVkcMFT8tYfSTf-57" edge="1">
          <mxGeometry width="50" height="50" relative="1" as="geometry">
            <mxPoint x="320" y="590" as="sourcePoint" />
            <mxPoint x="370" y="540" as="targetPoint" />
          </mxGeometry>
        </mxCell>
        <mxCell id="ADcIj5KVkcMFT8tYfSTf-117" value="" style="edgeStyle=elbowEdgeStyle;elbow=vertical;endArrow=classic;html=1;curved=0;rounded=0;endSize=8;startSize=8;exitX=1;exitY=0.5;exitDx=0;exitDy=0;" parent="WIyWlLk6GJQsqaUBKTNV-1" edge="1">
          <mxGeometry width="50" height="50" relative="1" as="geometry">
            <mxPoint x="89.50000000000006" y="400" as="sourcePoint" />
            <mxPoint x="350" y="400" as="targetPoint" />
          </mxGeometry>
        </mxCell>
        <mxCell id="ADcIj5KVkcMFT8tYfSTf-119" value="" style="edgeStyle=elbowEdgeStyle;elbow=horizontal;endArrow=classic;html=1;curved=0;rounded=0;endSize=8;startSize=8;exitX=1;exitY=1;exitDx=0;exitDy=0;" parent="WIyWlLk6GJQsqaUBKTNV-1" source="ADcIj5KVkcMFT8tYfSTf-92" target="ADcIj5KVkcMFT8tYfSTf-57" edge="1">
          <mxGeometry width="50" height="50" relative="1" as="geometry">
            <mxPoint x="300" y="440" as="sourcePoint" />
            <mxPoint x="350" y="390" as="targetPoint" />
          </mxGeometry>
        </mxCell>
        <mxCell id="ADcIj5KVkcMFT8tYfSTf-121" value="" style="curved=1;endArrow=classic;html=1;rounded=0;exitX=0.254;exitY=0.976;exitDx=0;exitDy=0;exitPerimeter=0;entryX=0;entryY=0.5;entryDx=0;entryDy=0;dashed=1;dashPattern=1 1;" parent="WIyWlLk6GJQsqaUBKTNV-1" edge="1">
          <mxGeometry width="50" height="50" relative="1" as="geometry">
            <mxPoint x="245.3800000000001" y="271.86512" as="sourcePoint" />
            <mxPoint x="216.5" y="1056.57" as="targetPoint" />
            <Array as="points">
              <mxPoint x="29.5" y="501.57" />
              <mxPoint x="62.5" y="1031.57" />
            </Array>
          </mxGeometry>
        </mxCell>
        <mxCell id="ADcIj5KVkcMFT8tYfSTf-125" value="&lt;div style=&quot;font-size: 14px;&quot;&gt;&lt;div style=&quot;&quot;&gt;&lt;span style=&quot;text-wrap: nowrap;&quot;&gt;&lt;b&gt;Создали таблицу с данными,&lt;/b&gt;&lt;/span&gt;&lt;/div&gt;&lt;div style=&quot;&quot;&gt;&lt;span style=&quot;text-wrap: nowrap;&quot;&gt;&lt;b&gt;&amp;nbsp;которые нужно&lt;/b&gt;&lt;/span&gt;&lt;/div&gt;&lt;div style=&quot;&quot;&gt;&lt;span style=&quot;text-wrap: nowrap;&quot;&gt;&lt;b&gt;&amp;nbsp;обновить для витрины или&lt;/b&gt;&lt;/span&gt;&lt;/div&gt;&lt;div style=&quot;&quot;&gt;&lt;span style=&quot;text-wrap: nowrap;&quot;&gt;&lt;b&gt;&amp;nbsp;добавить новые из хранилища&lt;/b&gt;&lt;/span&gt;&lt;br&gt;&lt;/div&gt;&lt;/div&gt;" style="text;strokeColor=none;align=center;fillColor=none;html=1;verticalAlign=middle;whiteSpace=wrap;rounded=0;fontSize=8;" parent="WIyWlLk6GJQsqaUBKTNV-1" vertex="1">
          <mxGeometry x="656.9999999999999" y="342.5" width="60" height="30" as="geometry" />
        </mxCell>
        <mxCell id="ADcIj5KVkcMFT8tYfSTf-128" value="" style="endArrow=classic;startArrow=classic;html=1;rounded=0;exitX=0.895;exitY=0.202;exitDx=0;exitDy=0;exitPerimeter=0;strokeWidth=4;entryX=0.674;entryY=1.025;entryDx=0;entryDy=0;entryPerimeter=0;" parent="WIyWlLk6GJQsqaUBKTNV-1" source="ADcIj5KVkcMFT8tYfSTf-130" edge="1" target="ADcIj5KVkcMFT8tYfSTf-78">
          <mxGeometry width="50" height="50" relative="1" as="geometry">
            <mxPoint x="320" y="710" as="sourcePoint" />
            <mxPoint x="450" y="140" as="targetPoint" />
          </mxGeometry>
        </mxCell>
        <mxCell id="ADcIj5KVkcMFT8tYfSTf-138" value="&lt;font style=&quot;font-size: 15px;&quot;&gt;формирование&amp;nbsp;&lt;span style=&quot;font-weight: 700;&quot;&gt;&lt;font style=&quot;font-size: 15px;&quot;&gt;dwh_delta&lt;/font&gt;&lt;/span&gt;&lt;/font&gt;" style="text;strokeColor=none;align=center;fillColor=none;html=1;verticalAlign=middle;whiteSpace=wrap;rounded=0;" parent="WIyWlLk6GJQsqaUBKTNV-1" vertex="1">
          <mxGeometry x="136" y="137.5" width="220" height="30" as="geometry" />
        </mxCell>
        <mxCell id="ADcIj5KVkcMFT8tYfSTf-139" value="&lt;font style=&quot;font-size: 12px;&quot;&gt;сравнение с датами загрузок в витину&lt;/font&gt;&lt;div style=&quot;&quot;&gt;&lt;font size=&quot;1&quot; style=&quot;&quot;&gt;&lt;i style=&quot;&quot;&gt;default 1900&lt;/i&gt;&lt;/font&gt;&lt;/div&gt;" style="text;strokeColor=none;align=center;fillColor=none;html=1;verticalAlign=middle;whiteSpace=wrap;rounded=0;rotation=0;" parent="WIyWlLk6GJQsqaUBKTNV-1" vertex="1">
          <mxGeometry x="480" y="180" width="80" height="30" as="geometry" />
        </mxCell>
        <mxCell id="ADcIj5KVkcMFT8tYfSTf-140" value="&lt;font style=&quot;font-size: 14px;&quot;&gt;Обновлённая и дополненная витрина&lt;/font&gt;" style="text;strokeColor=none;align=center;fillColor=none;html=1;verticalAlign=middle;whiteSpace=wrap;rounded=0;" parent="WIyWlLk6GJQsqaUBKTNV-1" vertex="1">
          <mxGeometry x="29.5" y="1050" width="130.5" height="60" as="geometry" />
        </mxCell>
        <mxCell id="ADcIj5KVkcMFT8tYfSTf-143" value="" style="curved=1;endArrow=classic;html=1;rounded=0;entryX=0.25;entryY=0;entryDx=0;entryDy=0;exitX=1;exitY=0.5;exitDx=0;exitDy=0;dashed=1;dashPattern=1 4;" parent="WIyWlLk6GJQsqaUBKTNV-1" source="ADcIj5KVkcMFT8tYfSTf-66" target="ADcIj5KVkcMFT8tYfSTf-82" edge="1">
          <mxGeometry width="50" height="50" relative="1" as="geometry">
            <mxPoint x="747" y="702.5" as="sourcePoint" />
            <mxPoint x="797" y="652.5" as="targetPoint" />
            <Array as="points">
              <mxPoint x="810" y="910" />
              <mxPoint x="810" y="780" />
              <mxPoint x="820" y="620" />
              <mxPoint x="820" y="440" />
              <mxPoint x="810" y="330" />
              <mxPoint x="790" y="260" />
            </Array>
          </mxGeometry>
        </mxCell>
        <mxCell id="ADcIj5KVkcMFT8tYfSTf-145" value="&lt;font style=&quot;font-size: 22px;&quot;&gt;1&lt;/font&gt;" style="text;strokeColor=none;align=center;fillColor=none;html=1;verticalAlign=middle;whiteSpace=wrap;rounded=0;fontStyle=1;fontSize=22;" parent="WIyWlLk6GJQsqaUBKTNV-1" vertex="1">
          <mxGeometry x="40" y="20" width="60" height="30" as="geometry" />
        </mxCell>
        <mxCell id="ADcIj5KVkcMFT8tYfSTf-147" value="&lt;font style=&quot;font-size: 22px;&quot;&gt;3&lt;/font&gt;" style="text;strokeColor=none;align=center;fillColor=none;html=1;verticalAlign=middle;whiteSpace=wrap;rounded=0;fontStyle=1;fontSize=20;" parent="WIyWlLk6GJQsqaUBKTNV-1" vertex="1">
          <mxGeometry x="100" y="480" width="60" height="30" as="geometry" />
        </mxCell>
        <mxCell id="ADcIj5KVkcMFT8tYfSTf-148" value="&lt;font style=&quot;font-size: 22px;&quot;&gt;2&lt;/font&gt;" style="text;strokeColor=none;align=center;fillColor=none;html=1;verticalAlign=middle;whiteSpace=wrap;rounded=0;fontStyle=1;fontSize=20;" parent="WIyWlLk6GJQsqaUBKTNV-1" vertex="1">
          <mxGeometry x="587" y="280" width="60" height="30" as="geometry" />
        </mxCell>
        <mxCell id="ADcIj5KVkcMFT8tYfSTf-149" value="&lt;font style=&quot;font-size: 22px;&quot;&gt;4&lt;/font&gt;" style="text;strokeColor=none;align=center;fillColor=none;html=1;verticalAlign=middle;whiteSpace=wrap;rounded=0;fontStyle=1;fontSize=20;" parent="WIyWlLk6GJQsqaUBKTNV-1" vertex="1">
          <mxGeometry x="565.5" y="430" width="60" height="30" as="geometry" />
        </mxCell>
        <mxCell id="ADcIj5KVkcMFT8tYfSTf-150" value="&lt;font style=&quot;font-size: 22px;&quot;&gt;5&lt;/font&gt;" style="text;strokeColor=none;align=center;fillColor=none;html=1;verticalAlign=middle;whiteSpace=wrap;rounded=0;fontStyle=1;fontSize=20;" parent="WIyWlLk6GJQsqaUBKTNV-1" vertex="1">
          <mxGeometry x="238" y="637.5" width="60" height="30" as="geometry" />
        </mxCell>
        <mxCell id="ADcIj5KVkcMFT8tYfSTf-151" value="&lt;font style=&quot;font-size: 22px;&quot;&gt;6&lt;/font&gt;" style="text;strokeColor=none;align=center;fillColor=none;html=1;verticalAlign=middle;whiteSpace=wrap;rounded=0;fontStyle=1;fontSize=20;" parent="WIyWlLk6GJQsqaUBKTNV-1" vertex="1">
          <mxGeometry x="587" y="820" width="60" height="30" as="geometry" />
        </mxCell>
        <mxCell id="ADcIj5KVkcMFT8tYfSTf-152" value="&lt;font style=&quot;font-size: 22px;&quot;&gt;7&lt;/font&gt;" style="text;strokeColor=none;align=center;fillColor=none;html=1;verticalAlign=middle;whiteSpace=wrap;rounded=0;fontStyle=1;fontSize=20;" parent="WIyWlLk6GJQsqaUBKTNV-1" vertex="1">
          <mxGeometry x="198" y="820" width="60" height="30" as="geometry" />
        </mxCell>
        <mxCell id="ADcIj5KVkcMFT8tYfSTf-155" value="" style="shape=flexArrow;endArrow=classic;html=1;rounded=0;entryX=0.851;entryY=1;entryDx=0;entryDy=0;entryPerimeter=0;" parent="WIyWlLk6GJQsqaUBKTNV-1" target="ADcIj5KVkcMFT8tYfSTf-78" edge="1">
          <mxGeometry width="50" height="50" relative="1" as="geometry">
            <mxPoint x="510" y="320" as="sourcePoint" />
            <mxPoint x="560" y="270" as="targetPoint" />
            <Array as="points">
              <mxPoint x="540" y="290" />
            </Array>
          </mxGeometry>
        </mxCell>
        <mxCell id="ADcIj5KVkcMFT8tYfSTf-157" value="&lt;font style=&quot;font-size: 22px;&quot;&gt;8&lt;/font&gt;" style="text;strokeColor=none;align=center;fillColor=none;html=1;verticalAlign=middle;whiteSpace=wrap;rounded=0;fontStyle=1;fontSize=20;" parent="WIyWlLk6GJQsqaUBKTNV-1" vertex="1">
          <mxGeometry x="687" y="90" width="60" height="30" as="geometry" />
        </mxCell>
        <mxCell id="SZ4hLYRf0ftXyzn44yjF-0" value="&lt;u&gt;Инкрементальное обновление данных в витрине&lt;/u&gt;" style="text;strokeColor=none;align=center;fillColor=none;html=1;verticalAlign=middle;whiteSpace=wrap;rounded=0;fontSize=22;fontStyle=1" parent="WIyWlLk6GJQsqaUBKTNV-1" vertex="1">
          <mxGeometry x="140" y="10" width="547" height="30" as="geometry" />
        </mxCell>
        <mxCell id="HpXTsbUmw_UM7-5A2E2B-1" value="DDL" style="text;strokeColor=none;align=center;fillColor=none;html=1;verticalAlign=middle;whiteSpace=wrap;rounded=0;" parent="WIyWlLk6GJQsqaUBKTNV-1" vertex="1">
          <mxGeometry x="285" y="232.49999999999997" width="43" height="24.49" as="geometry" />
        </mxCell>
        <mxCell id="HpXTsbUmw_UM7-5A2E2B-3" value="DDL" style="text;strokeColor=none;align=center;fillColor=none;html=1;verticalAlign=middle;whiteSpace=wrap;rounded=0;" parent="WIyWlLk6GJQsqaUBKTNV-1" vertex="1">
          <mxGeometry x="422.5" y="292.5" width="43" height="24.49" as="geometry" />
        </mxCell>
        <mxCell id="HpXTsbUmw_UM7-5A2E2B-4" value="DDL" style="text;strokeColor=none;align=center;fillColor=none;html=1;verticalAlign=middle;whiteSpace=wrap;rounded=0;" parent="WIyWlLk6GJQsqaUBKTNV-1" vertex="1">
          <mxGeometry x="313" y="530" width="43" height="24.49" as="geometry" />
        </mxCell>
        <mxCell id="HpXTsbUmw_UM7-5A2E2B-5" value="DDL" style="text;strokeColor=none;align=center;fillColor=none;html=1;verticalAlign=middle;whiteSpace=wrap;rounded=0;" parent="WIyWlLk6GJQsqaUBKTNV-1" vertex="1">
          <mxGeometry x="540" y="730" width="43" height="24.49" as="geometry" />
        </mxCell>
        <mxCell id="HpXTsbUmw_UM7-5A2E2B-6" value="DDL" style="text;strokeColor=none;align=center;fillColor=none;html=1;verticalAlign=middle;whiteSpace=wrap;rounded=0;" parent="WIyWlLk6GJQsqaUBKTNV-1" vertex="1">
          <mxGeometry x="203.5" y="55.50999999999996" width="43" height="24.49" as="geometry" />
        </mxCell>
        <mxCell id="HpXTsbUmw_UM7-5A2E2B-17" value="&lt;span style=&quot;padding: 0px 0px 0px 2px;&quot;&gt;&lt;span style=&quot;font-family: Consolas; font-size: 10pt; white-space: pre; background-color: rgb(255, 255, 255);&quot;&gt;exist_customer_id &lt;span style=&quot;font-weight: bold;&quot;&gt;IS&lt;/span&gt; &lt;span style=&quot;font-weight: bold;&quot;&gt;NOT&lt;/span&gt; &lt;span style=&quot;font-weight: bold;&quot;&gt;NULL&lt;/span&gt;&lt;/span&gt;&lt;/span&gt;" style="text;align=center;html=1;verticalAlign=middle;whiteSpace=wrap;rounded=0;fontStyle=2" parent="WIyWlLk6GJQsqaUBKTNV-1" vertex="1">
          <mxGeometry x="246.5" y="585" width="210" height="10" as="geometry" />
        </mxCell>
        <mxCell id="HpXTsbUmw_UM7-5A2E2B-18" value="&lt;span style=&quot;padding: 0px 0px 0px 2px;&quot;&gt;&lt;span style=&quot;font-family: Consolas; font-size: 10pt; white-space: pre; background-color: rgb(255, 255, 255);&quot;&gt;&lt;span style=&quot;font-weight: bold;&quot;&gt;INNER&lt;/span&gt; &lt;span style=&quot;font-weight: bold;&quot;&gt;JOIN&lt;/span&gt;&lt;/span&gt;&lt;/span&gt;" style="text;strokeColor=none;align=center;fillColor=none;html=1;verticalAlign=middle;whiteSpace=wrap;rounded=0;" parent="WIyWlLk6GJQsqaUBKTNV-1" vertex="1">
          <mxGeometry x="570" y="571.25" width="60" height="30" as="geometry" />
        </mxCell>
        <mxCell id="HpXTsbUmw_UM7-5A2E2B-19" value="&lt;span style=&quot;padding: 0px 0px 0px 2px;&quot;&gt;&lt;span style=&quot;font-family: Consolas; font-size: 10pt; white-space: pre; background-color: rgb(255, 255, 255);&quot;&gt;&lt;font color=&quot;#080808&quot;&gt;&lt;span style=&quot;font-weight: bold;&quot;&gt;INNER&lt;/span&gt; &lt;span style=&quot;font-weight: bold;&quot;&gt;JOIN&lt;/span&gt;&lt;/font&gt;&lt;/span&gt;&lt;/span&gt;" style="text;strokeColor=none;align=center;fillColor=none;html=1;verticalAlign=middle;whiteSpace=wrap;rounded=0;" parent="WIyWlLk6GJQsqaUBKTNV-1" vertex="1">
          <mxGeometry x="570" y="627.5" width="60" height="30" as="geometry" />
        </mxCell>
        <mxCell id="HpXTsbUmw_UM7-5A2E2B-20" value="расчёт популярного&lt;div&gt;мастера у заказчика&lt;/div&gt;" style="text;strokeColor=none;align=center;fillColor=none;html=1;verticalAlign=middle;whiteSpace=wrap;rounded=0;" parent="WIyWlLk6GJQsqaUBKTNV-1" vertex="1">
          <mxGeometry x="642.5" y="552.5" width="140" height="55" as="geometry" />
        </mxCell>
        <mxCell id="HpXTsbUmw_UM7-5A2E2B-21" value="расчёт популярного товара у мастера" style="text;strokeColor=none;align=center;fillColor=none;html=1;verticalAlign=middle;whiteSpace=wrap;rounded=0;" parent="WIyWlLk6GJQsqaUBKTNV-1" vertex="1">
          <mxGeometry x="655" y="618.75" width="115" height="47.5" as="geometry" />
        </mxCell>
        <mxCell id="HpXTsbUmw_UM7-5A2E2B-22" value="" style="shape=curlyBracket;whiteSpace=wrap;html=1;rounded=1;labelPosition=left;verticalLabelPosition=middle;align=right;verticalAlign=middle;" parent="WIyWlLk6GJQsqaUBKTNV-1" vertex="1">
          <mxGeometry x="545.5" y="552.5" width="20" height="120" as="geometry" />
        </mxCell>
        <mxCell id="HpXTsbUmw_UM7-5A2E2B-23" value="" style="endArrow=classic;html=1;rounded=0;dashed=1;dashPattern=1 4;entryX=0.25;entryY=1;entryDx=0;entryDy=0;exitX=0.25;exitY=0.2;exitDx=0;exitDy=0;exitPerimeter=0;" parent="WIyWlLk6GJQsqaUBKTNV-1" source="HpXTsbUmw_UM7-5A2E2B-22" target="ADcIj5KVkcMFT8tYfSTf-75" edge="1">
          <mxGeometry width="50" height="50" relative="1" as="geometry">
            <mxPoint x="558.5" y="637.5" as="sourcePoint" />
            <mxPoint x="498.5" y="687.5" as="targetPoint" />
          </mxGeometry>
        </mxCell>
        <mxCell id="HpXTsbUmw_UM7-5A2E2B-24" value="" style="endArrow=classic;html=1;rounded=0;dashed=1;dashPattern=1 4;exitX=0.551;exitY=0.707;exitDx=0;exitDy=0;exitPerimeter=0;" parent="WIyWlLk6GJQsqaUBKTNV-1" source="HpXTsbUmw_UM7-5A2E2B-22" edge="1">
          <mxGeometry width="50" height="50" relative="1" as="geometry">
            <mxPoint x="540" y="660" as="sourcePoint" />
            <mxPoint x="530" y="670" as="targetPoint" />
          </mxGeometry>
        </mxCell>
        <mxCell id="dwCFXaS-SUv13-UNIq3U-1" value="&lt;font face=&quot;Courier New&quot;&gt;by Kovalchuk PV&lt;/font&gt;" style="text;strokeColor=none;align=center;fillColor=none;html=1;verticalAlign=middle;whiteSpace=wrap;rounded=0;" parent="WIyWlLk6GJQsqaUBKTNV-1" vertex="1">
          <mxGeometry x="687" y="1130" width="130" height="20" as="geometry" />
        </mxCell>
        <mxCell id="ZD9x9Xp-bdUePuYkmJ0l-0" value="" style="shape=parallelogram;perimeter=parallelogramPerimeter;whiteSpace=wrap;html=1;fixedSize=1;" vertex="1" parent="WIyWlLk6GJQsqaUBKTNV-1">
          <mxGeometry x="-477" y="527.5" width="220" height="130" as="geometry" />
        </mxCell>
        <mxCell id="ZD9x9Xp-bdUePuYkmJ0l-1" value="" style="shape=parallelogram;perimeter=parallelogramPerimeter;whiteSpace=wrap;html=1;fixedSize=1;" vertex="1" parent="WIyWlLk6GJQsqaUBKTNV-1">
          <mxGeometry x="-487" y="123.75" width="220" height="130" as="geometry" />
        </mxCell>
        <mxCell id="ZD9x9Xp-bdUePuYkmJ0l-2" value="" style="rounded=1;whiteSpace=wrap;html=1;" vertex="1" parent="WIyWlLk6GJQsqaUBKTNV-1">
          <mxGeometry x="-790" y="148.75" width="110" height="91.25" as="geometry" />
        </mxCell>
        <mxCell id="ZD9x9Xp-bdUePuYkmJ0l-3" value="" style="rounded=1;whiteSpace=wrap;html=1;" vertex="1" parent="WIyWlLk6GJQsqaUBKTNV-1">
          <mxGeometry x="-277" y="112.5" width="97" height="87.5" as="geometry" />
        </mxCell>
        <mxCell id="ZD9x9Xp-bdUePuYkmJ0l-4" value="....." style="rounded=1;whiteSpace=wrap;html=1;" vertex="1" parent="WIyWlLk6GJQsqaUBKTNV-1">
          <mxGeometry x="-637.5" y="342.5" width="160" height="85" as="geometry" />
        </mxCell>
        <mxCell id="ZD9x9Xp-bdUePuYkmJ0l-5" value="&lt;div&gt;&lt;font style=&quot;&quot;&gt;&lt;b style=&quot;text-align: justify;&quot;&gt;&lt;font style=&quot;font-size: 14px;&quot;&gt;FACT&lt;/font&gt;&lt;/b&gt;&lt;br&gt;&lt;/font&gt;&lt;/div&gt;&lt;font style=&quot;font-size: 14px;&quot;&gt;f_order&lt;/font&gt;" style="text;strokeColor=none;align=center;fillColor=none;html=1;verticalAlign=middle;whiteSpace=wrap;rounded=0;strokeWidth=3;" vertex="1" parent="WIyWlLk6GJQsqaUBKTNV-1">
          <mxGeometry x="-587" y="355" width="60" height="35" as="geometry" />
        </mxCell>
        <mxCell id="ZD9x9Xp-bdUePuYkmJ0l-6" value="+ FK" style="text;strokeColor=none;align=center;fillColor=none;html=1;verticalAlign=middle;whiteSpace=wrap;rounded=0;" vertex="1" parent="WIyWlLk6GJQsqaUBKTNV-1">
          <mxGeometry x="-427" y="347.5" width="60" height="30" as="geometry" />
        </mxCell>
        <mxCell id="ZD9x9Xp-bdUePuYkmJ0l-7" value="craftsman_id&lt;div&gt;customer_id&lt;br&gt;&lt;/div&gt;&lt;div&gt;product_id&lt;br&gt;&lt;/div&gt;" style="text;strokeColor=none;align=center;fillColor=none;html=1;verticalAlign=middle;whiteSpace=wrap;rounded=0;" vertex="1" parent="WIyWlLk6GJQsqaUBKTNV-1">
          <mxGeometry x="-353" y="342.5" width="60" height="30" as="geometry" />
        </mxCell>
        <mxCell id="ZD9x9Xp-bdUePuYkmJ0l-8" value="&lt;i&gt;load_dttm timestamp&lt;/i&gt;" style="text;strokeColor=none;align=center;fillColor=none;html=1;verticalAlign=middle;whiteSpace=wrap;rounded=0;" vertex="1" parent="WIyWlLk6GJQsqaUBKTNV-1">
          <mxGeometry x="-632" y="392.5" width="140" height="20" as="geometry" />
        </mxCell>
        <mxCell id="ZD9x9Xp-bdUePuYkmJ0l-9" value="" style="shape=singleArrow;whiteSpace=wrap;html=1;" vertex="1" parent="WIyWlLk6GJQsqaUBKTNV-1">
          <mxGeometry x="-732" y="367.5" width="80" height="40" as="geometry" />
        </mxCell>
        <mxCell id="ZD9x9Xp-bdUePuYkmJ0l-10" value="sourse 1&lt;div&gt;sourse 2&lt;br&gt;&lt;/div&gt;&lt;div&gt;sourse 3&lt;br&gt;&lt;/div&gt;&lt;div&gt;external_sourse&lt;br&gt;&lt;/div&gt;" style="text;strokeColor=none;align=center;fillColor=none;html=1;verticalAlign=middle;whiteSpace=wrap;rounded=0;" vertex="1" parent="WIyWlLk6GJQsqaUBKTNV-1">
          <mxGeometry x="-767" y="162.5" width="60" height="55" as="geometry" />
        </mxCell>
        <mxCell id="ZD9x9Xp-bdUePuYkmJ0l-11" value="" style="shape=singleArrow;whiteSpace=wrap;html=1;" vertex="1" parent="WIyWlLk6GJQsqaUBKTNV-1">
          <mxGeometry x="-677" y="172.5" width="40" height="25" as="geometry" />
        </mxCell>
        <mxCell id="ZD9x9Xp-bdUePuYkmJ0l-12" value="UNION" style="text;strokeColor=none;align=center;fillColor=none;html=1;verticalAlign=middle;whiteSpace=wrap;rounded=0;" vertex="1" parent="WIyWlLk6GJQsqaUBKTNV-1">
          <mxGeometry x="-682" y="151.25" width="50" height="21.25" as="geometry" />
        </mxCell>
        <mxCell id="ZD9x9Xp-bdUePuYkmJ0l-13" value="CREATE" style="text;strokeColor=none;align=center;fillColor=none;html=1;verticalAlign=middle;whiteSpace=wrap;rounded=0;" vertex="1" parent="WIyWlLk6GJQsqaUBKTNV-1">
          <mxGeometry x="-597" y="122.5" width="60" height="30" as="geometry" />
        </mxCell>
        <mxCell id="ZD9x9Xp-bdUePuYkmJ0l-14" value="" style="rounded=1;whiteSpace=wrap;html=1;" vertex="1" parent="WIyWlLk6GJQsqaUBKTNV-1">
          <mxGeometry x="-627" y="150" width="127" height="90" as="geometry" />
        </mxCell>
        <mxCell id="ZD9x9Xp-bdUePuYkmJ0l-15" value="TEMP TABLE&lt;div&gt;&lt;br&gt;&lt;/div&gt;&lt;div&gt;&amp;nbsp;&lt;i&gt;tmp_sources&lt;/i&gt;&lt;/div&gt;" style="text;strokeColor=none;align=center;fillColor=none;html=1;verticalAlign=middle;whiteSpace=wrap;rounded=0;" vertex="1" parent="WIyWlLk6GJQsqaUBKTNV-1">
          <mxGeometry x="-612" y="181.25" width="90" height="47.5" as="geometry" />
        </mxCell>
        <mxCell id="ZD9x9Xp-bdUePuYkmJ0l-16" value="&lt;ol style=&quot;box-sizing: inherit; margin-top: var(--size-300, var(--base-unit, calc(16px * var(--base-ratio, 1)))); padding: 0 0 0 var(--size-700, calc(var(--base-unit, calc(16px * var(--base-ratio, 1))) * 2)); white-space-collapse: preserve-breaks; list-style: none; counter-reset: ordered-list1 0; font-family: &amp;quot;YS Text&amp;quot;, Arial, Helvetica, sans-serif; text-align: start;&quot; start=&quot;1&quot;&gt;&lt;li style=&quot;box-sizing: inherit; position: relative; margin: 0 0 var(--size-100, calc(var(--base-unit, calc(16px * var(--base-ratio, 1))) * 0.5));&quot;&gt;&lt;font color=&quot;#191919&quot; style=&quot;font-size: 12px; background-color: rgb(255, 255, 255);&quot;&gt;Извлечение данных из источников и размещение их во временной таблице.&lt;/font&gt;&lt;/li&gt;&lt;li style=&quot;color: rgb(214, 214, 214); background-color: rgb(32, 33, 36); font-size: 16px;&quot;&gt;&lt;/li&gt;&lt;/ol&gt;" style="text;align=center;html=1;verticalAlign=middle;whiteSpace=wrap;rounded=0;strokeWidth=0;fillColor=default;allowArrows=1;connectable=1;" vertex="1" parent="WIyWlLk6GJQsqaUBKTNV-1">
          <mxGeometry x="-787" y="57.5" width="280" height="50" as="geometry" />
        </mxCell>
        <mxCell id="ZD9x9Xp-bdUePuYkmJ0l-17" value="&lt;ol style=&quot;box-sizing: inherit; margin-top: var(--size-300, var(--base-unit, calc(16px * var(--base-ratio, 1)))); padding: 0 0 0 var(--size-700, calc(var(--base-unit, calc(16px * var(--base-ratio, 1))) * 2)); white-space-collapse: preserve-breaks; list-style: none; counter-reset: ordered-list1 0; font-family: &amp;quot;YS Text&amp;quot;, Arial, Helvetica, sans-serif; text-align: start;&quot; start=&quot;1&quot;&gt;&lt;li style=&quot;box-sizing: inherit; position: relative; margin: 0 0 var(--size-100, calc(var(--base-unit, calc(16px * var(--base-ratio, 1))) * 0.5));&quot;&gt;&lt;font color=&quot;#191919&quot; style=&quot;font-size: 12px; background-color: rgb(255, 255, 255);&quot;&gt;обновление существующих записей и добавление новых в dwh&lt;/font&gt;&lt;/li&gt;&lt;/ol&gt;" style="text;strokeColor=none;align=center;fillColor=none;html=1;verticalAlign=middle;whiteSpace=wrap;rounded=0;" vertex="1" parent="WIyWlLk6GJQsqaUBKTNV-1">
          <mxGeometry x="-497" y="50" width="280" height="52.5" as="geometry" />
        </mxCell>
        <mxCell id="ZD9x9Xp-bdUePuYkmJ0l-18" value="&lt;div&gt;&lt;b&gt;MERGE INTO&lt;/b&gt; &lt;b&gt;target_table&lt;/b&gt;&amp;nbsp;&lt;/div&gt;&lt;div&gt;USING&amp;nbsp;&lt;span style=&quot;text-align: center;&quot;&gt;&lt;b&gt;temp_table&amp;nbsp;&lt;/b&gt;&lt;/span&gt;&lt;/div&gt;&lt;div&gt;ON &amp;lt;condition&amp;gt;&lt;/div&gt;&lt;div&gt;&lt;br&gt;&lt;/div&gt;&lt;div&gt;&lt;b&gt;WHEN MATCHED THEN&lt;/b&gt;&lt;/div&gt;&lt;div&gt;&amp;nbsp; &amp;nbsp; &amp;lt;update_statement&amp;gt;&lt;/div&gt;&lt;div&gt;&lt;b&gt;WHEN NOT MATCHED THEN&lt;/b&gt;&lt;/div&gt;&lt;div&gt;&amp;nbsp; &amp;nbsp; &amp;lt;insert_delete_statement &amp;gt;&lt;/div&gt;" style="text;strokeColor=none;align=left;fillColor=none;html=1;verticalAlign=middle;whiteSpace=wrap;rounded=0;" vertex="1" parent="WIyWlLk6GJQsqaUBKTNV-1">
          <mxGeometry x="-457" y="123.75" width="200" height="130" as="geometry" />
        </mxCell>
        <mxCell id="ZD9x9Xp-bdUePuYkmJ0l-19" value="&lt;div&gt;&lt;b style=&quot;text-align: justify;&quot;&gt;&lt;font style=&quot;font-size: 13px;&quot;&gt;Dimension&lt;/font&gt;&lt;/b&gt;&lt;br&gt;&lt;/div&gt;d_craftsdman&lt;div&gt;d_products&lt;br&gt;&lt;/div&gt;&lt;div&gt;d_customer&lt;br&gt;&lt;/div&gt;" style="text;strokeColor=none;align=center;fillColor=none;html=1;verticalAlign=middle;whiteSpace=wrap;rounded=0;" vertex="1" parent="WIyWlLk6GJQsqaUBKTNV-1">
          <mxGeometry x="-257" y="139" width="60" height="30" as="geometry" />
        </mxCell>
        <mxCell id="ZD9x9Xp-bdUePuYkmJ0l-20" value="" style="endArrow=classic;html=1;rounded=0;dashed=1;dashPattern=1 1;" edge="1" parent="WIyWlLk6GJQsqaUBKTNV-1">
          <mxGeometry width="50" height="50" relative="1" as="geometry">
            <mxPoint x="-292" y="132.17000000000002" as="sourcePoint" />
            <mxPoint x="-312" y="132.17000000000002" as="targetPoint" />
          </mxGeometry>
        </mxCell>
        <mxCell id="ZD9x9Xp-bdUePuYkmJ0l-21" value="" style="endArrow=classic;html=1;rounded=0;exitX=1;exitY=0.5;exitDx=0;exitDy=0;strokeColor=default;dashed=1;dashPattern=1 2;" edge="1" parent="WIyWlLk6GJQsqaUBKTNV-1" source="ZD9x9Xp-bdUePuYkmJ0l-14">
          <mxGeometry width="50" height="50" relative="1" as="geometry">
            <mxPoint x="-357" y="202.5" as="sourcePoint" />
            <mxPoint x="-410" y="160" as="targetPoint" />
          </mxGeometry>
        </mxCell>
        <mxCell id="ZD9x9Xp-bdUePuYkmJ0l-22" value="&lt;font style=&quot;font-size: 16px;&quot;&gt;&lt;b&gt;d_craftsdman&lt;/b&gt;&lt;/font&gt;&lt;div style=&quot;font-size: 16px;&quot;&gt;&lt;font style=&quot;font-size: 16px;&quot;&gt;&lt;b&gt;d_products&lt;br&gt;&lt;/b&gt;&lt;/font&gt;&lt;/div&gt;&lt;div style=&quot;font-size: 16px;&quot;&gt;&lt;font style=&quot;font-size: 16px;&quot;&gt;&lt;b&gt;d_customer&lt;/b&gt;&lt;/font&gt;&lt;/div&gt;" style="rounded=1;whiteSpace=wrap;html=1;direction=south;arcSize=7;" vertex="1" parent="WIyWlLk6GJQsqaUBKTNV-1">
          <mxGeometry x="-137" y="148.75" width="110" height="80" as="geometry" />
        </mxCell>
        <mxCell id="ZD9x9Xp-bdUePuYkmJ0l-23" value="&lt;span style=&quot;font-family: &amp;quot;YS Text&amp;quot;, Arial, Helvetica, sans-serif; text-align: left; white-space-collapse: preserve-breaks; background-color: rgb(255, 255, 255);&quot;&gt;&lt;font color=&quot;#191919&quot; style=&quot;font-size: 12px;&quot;&gt;Новые данные в хранилище&lt;/font&gt;&lt;/span&gt;" style="text;strokeColor=none;align=center;fillColor=none;html=1;verticalAlign=middle;whiteSpace=wrap;rounded=0;" vertex="1" parent="WIyWlLk6GJQsqaUBKTNV-1">
          <mxGeometry x="-142" y="65" width="100" height="40" as="geometry" />
        </mxCell>
        <mxCell id="ZD9x9Xp-bdUePuYkmJ0l-24" value="" style="line;strokeWidth=1;direction=south;html=1;dashed=1;dashPattern=1 4;" vertex="1" parent="WIyWlLk6GJQsqaUBKTNV-1">
          <mxGeometry x="-497" y="72.5" width="10" height="220" as="geometry" />
        </mxCell>
        <mxCell id="ZD9x9Xp-bdUePuYkmJ0l-25" value="" style="shape=singleArrow;whiteSpace=wrap;html=1;" vertex="1" parent="WIyWlLk6GJQsqaUBKTNV-1">
          <mxGeometry x="-172" y="173.75" width="30" height="30" as="geometry" />
        </mxCell>
        <mxCell id="ZD9x9Xp-bdUePuYkmJ0l-27" value="&lt;div style=&quot;text-align: justify;&quot;&gt;&lt;span style=&quot;background-color: initial;&quot;&gt;&lt;font style=&quot;font-size: 16px;&quot;&gt;&lt;b&gt;FACT&lt;/b&gt;&lt;/font&gt;&lt;/span&gt;&lt;/div&gt;" style="text;strokeColor=none;align=center;fillColor=none;html=1;verticalAlign=middle;whiteSpace=wrap;rounded=0;rotation=0;strokeWidth=2;" vertex="1" parent="WIyWlLk6GJQsqaUBKTNV-1">
          <mxGeometry x="-479" y="287.5" width="151" height="40" as="geometry" />
        </mxCell>
        <mxCell id="ZD9x9Xp-bdUePuYkmJ0l-28" value="" style="rounded=1;whiteSpace=wrap;html=1;" vertex="1" parent="WIyWlLk6GJQsqaUBKTNV-1">
          <mxGeometry x="-797" y="561.25" width="90" height="62.5" as="geometry" />
        </mxCell>
        <mxCell id="ZD9x9Xp-bdUePuYkmJ0l-29" value="sourse 1&lt;div&gt;sourse 2&lt;br&gt;&lt;/div&gt;&lt;div&gt;sourse 3&lt;br&gt;&lt;/div&gt;" style="text;strokeColor=none;align=center;fillColor=none;html=1;verticalAlign=middle;whiteSpace=wrap;rounded=0;" vertex="1" parent="WIyWlLk6GJQsqaUBKTNV-1">
          <mxGeometry x="-777" y="577.5" width="60" height="30" as="geometry" />
        </mxCell>
        <mxCell id="ZD9x9Xp-bdUePuYkmJ0l-30" value="" style="shape=singleArrow;whiteSpace=wrap;html=1;" vertex="1" parent="WIyWlLk6GJQsqaUBKTNV-1">
          <mxGeometry x="-697" y="585" width="40" height="25" as="geometry" />
        </mxCell>
        <mxCell id="ZD9x9Xp-bdUePuYkmJ0l-31" value="UNION" style="text;strokeColor=none;align=center;fillColor=none;html=1;verticalAlign=middle;whiteSpace=wrap;rounded=0;" vertex="1" parent="WIyWlLk6GJQsqaUBKTNV-1">
          <mxGeometry x="-702" y="563.75" width="50" height="21.25" as="geometry" />
        </mxCell>
        <mxCell id="ZD9x9Xp-bdUePuYkmJ0l-32" value="CREATE" style="text;strokeColor=none;align=center;fillColor=none;html=1;verticalAlign=middle;whiteSpace=wrap;rounded=0;" vertex="1" parent="WIyWlLk6GJQsqaUBKTNV-1">
          <mxGeometry x="-617" y="535" width="60" height="30" as="geometry" />
        </mxCell>
        <mxCell id="ZD9x9Xp-bdUePuYkmJ0l-33" value="" style="rounded=1;whiteSpace=wrap;html=1;" vertex="1" parent="WIyWlLk6GJQsqaUBKTNV-1">
          <mxGeometry x="-647" y="562.5" width="127" height="97.5" as="geometry" />
        </mxCell>
        <mxCell id="ZD9x9Xp-bdUePuYkmJ0l-34" value="TEMP TABLE&lt;div&gt;&lt;br&gt;&lt;/div&gt;&lt;div&gt;&amp;nbsp;tmp_sources_fact&lt;/div&gt;" style="text;strokeColor=none;align=center;fillColor=none;html=1;verticalAlign=middle;whiteSpace=wrap;rounded=0;" vertex="1" parent="WIyWlLk6GJQsqaUBKTNV-1">
          <mxGeometry x="-632" y="595" width="90" height="47.5" as="geometry" />
        </mxCell>
        <mxCell id="ZD9x9Xp-bdUePuYkmJ0l-35" value="&lt;div&gt;&lt;b&gt;MERGE INTO&lt;/b&gt;&amp;nbsp;&lt;span style=&quot;background-color: initial;&quot;&gt;f_order&lt;/span&gt;&lt;/div&gt;&lt;div&gt;USING&amp;nbsp;&lt;span style=&quot;background-color: initial;&quot;&gt;&amp;nbsp;tmp_sources_fact&lt;/span&gt;&lt;span style=&quot;background-color: initial;&quot;&gt;&amp;nbsp;&lt;/span&gt;&lt;/div&gt;&lt;div&gt;ON &amp;lt;condition&amp;gt;&lt;/div&gt;&lt;div&gt;&lt;br&gt;&lt;/div&gt;&lt;div&gt;&lt;b&gt;WHEN MATCHED THEN&lt;/b&gt;&lt;/div&gt;&lt;div&gt;&amp;nbsp; &amp;nbsp; &amp;lt;update_statement&amp;gt;&lt;/div&gt;&lt;div&gt;&lt;b&gt;WHEN NOT MATCHED THEN&lt;/b&gt;&lt;/div&gt;&lt;div&gt;&amp;nbsp; &amp;nbsp; &amp;lt;insert_delete_statement &amp;gt;&lt;/div&gt;" style="text;strokeColor=none;align=left;fillColor=none;html=1;verticalAlign=middle;whiteSpace=wrap;rounded=0;" vertex="1" parent="WIyWlLk6GJQsqaUBKTNV-1">
          <mxGeometry x="-447" y="527.5" width="200" height="130" as="geometry" />
        </mxCell>
        <mxCell id="ZD9x9Xp-bdUePuYkmJ0l-36" value="" style="endArrow=classic;html=1;rounded=0;entryX=0.25;entryY=0.25;entryDx=0;entryDy=0;entryPerimeter=0;strokeColor=default;dashed=1;dashPattern=1 2;" edge="1" parent="WIyWlLk6GJQsqaUBKTNV-1" source="ZD9x9Xp-bdUePuYkmJ0l-33" target="ZD9x9Xp-bdUePuYkmJ0l-35">
          <mxGeometry width="50" height="50" relative="1" as="geometry">
            <mxPoint x="-377" y="615" as="sourcePoint" />
            <mxPoint x="-327" y="565" as="targetPoint" />
          </mxGeometry>
        </mxCell>
        <mxCell id="ZD9x9Xp-bdUePuYkmJ0l-37" value="" style="shape=singleArrow;whiteSpace=wrap;html=1;" vertex="1" parent="WIyWlLk6GJQsqaUBKTNV-1">
          <mxGeometry x="-177" y="535" width="40" height="52.5" as="geometry" />
        </mxCell>
        <mxCell id="ZD9x9Xp-bdUePuYkmJ0l-38" value="DDL" style="text;strokeColor=none;align=center;fillColor=none;html=1;verticalAlign=middle;whiteSpace=wrap;rounded=0;" vertex="1" parent="WIyWlLk6GJQsqaUBKTNV-1">
          <mxGeometry x="-722" y="350" width="60" height="30" as="geometry" />
        </mxCell>
        <mxCell id="ZD9x9Xp-bdUePuYkmJ0l-39" value="" style="line;strokeWidth=1;direction=south;html=1;dashed=1;dashPattern=1 4;" vertex="1" parent="WIyWlLk6GJQsqaUBKTNV-1">
          <mxGeometry x="-497" y="502.5" width="10" height="170" as="geometry" />
        </mxCell>
        <mxCell id="ZD9x9Xp-bdUePuYkmJ0l-40" value="" style="line;strokeWidth=1;direction=south;html=1;dashed=1;dashPattern=1 4;" vertex="1" parent="WIyWlLk6GJQsqaUBKTNV-1">
          <mxGeometry x="-187" y="62.5" width="10" height="620" as="geometry" />
        </mxCell>
        <mxCell id="ZD9x9Xp-bdUePuYkmJ0l-41" value="" style="edgeStyle=elbowEdgeStyle;elbow=vertical;endArrow=classic;html=1;curved=0;rounded=0;endSize=8;startSize=8;entryX=0.833;entryY=0;entryDx=0;entryDy=0;entryPerimeter=0;exitX=0.671;exitY=0.986;exitDx=0;exitDy=0;exitPerimeter=0;" edge="1" parent="WIyWlLk6GJQsqaUBKTNV-1" source="ZD9x9Xp-bdUePuYkmJ0l-3" target="ZD9x9Xp-bdUePuYkmJ0l-33">
          <mxGeometry width="50" height="50" relative="1" as="geometry">
            <mxPoint x="-227" y="412.5" as="sourcePoint" />
            <mxPoint x="-447" y="382.5" as="targetPoint" />
            <Array as="points">
              <mxPoint x="-387" y="482.5" />
            </Array>
          </mxGeometry>
        </mxCell>
        <mxCell id="ZD9x9Xp-bdUePuYkmJ0l-42" value="JOIN" style="text;strokeColor=none;align=center;fillColor=none;html=1;verticalAlign=middle;whiteSpace=wrap;rounded=0;" vertex="1" parent="WIyWlLk6GJQsqaUBKTNV-1">
          <mxGeometry x="-557" y="452.5" width="60" height="30" as="geometry" />
        </mxCell>
        <mxCell id="ZD9x9Xp-bdUePuYkmJ0l-43" value="FROM" style="text;strokeColor=none;align=center;fillColor=none;html=1;verticalAlign=middle;whiteSpace=wrap;rounded=0;" vertex="1" parent="WIyWlLk6GJQsqaUBKTNV-1">
          <mxGeometry x="-687" y="452.5" width="60" height="30" as="geometry" />
        </mxCell>
        <mxCell id="ZD9x9Xp-bdUePuYkmJ0l-44" value="" style="endArrow=classic;html=1;rounded=0;exitX=0.857;exitY=1;exitDx=0;exitDy=0;strokeColor=default;dashed=1;dashPattern=1 2;exitPerimeter=0;" edge="1" parent="WIyWlLk6GJQsqaUBKTNV-1" source="ZD9x9Xp-bdUePuYkmJ0l-4" target="ZD9x9Xp-bdUePuYkmJ0l-35">
          <mxGeometry width="50" height="50" relative="1" as="geometry">
            <mxPoint x="-497" y="196.5" as="sourcePoint" />
            <mxPoint x="-397" y="162.5" as="targetPoint" />
          </mxGeometry>
        </mxCell>
        <mxCell id="ZD9x9Xp-bdUePuYkmJ0l-45" value="" style="rounded=1;whiteSpace=wrap;html=1;" vertex="1" parent="WIyWlLk6GJQsqaUBKTNV-1">
          <mxGeometry x="-123" y="520.62" width="113" height="81.25" as="geometry" />
        </mxCell>
        <mxCell id="ZD9x9Xp-bdUePuYkmJ0l-46" value="&lt;font style=&quot;font-size: 18px;&quot;&gt;&lt;b&gt;f_order&lt;/b&gt;&lt;/font&gt;" style="text;strokeColor=none;align=center;fillColor=none;html=1;verticalAlign=middle;whiteSpace=wrap;rounded=0;" vertex="1" parent="WIyWlLk6GJQsqaUBKTNV-1">
          <mxGeometry x="-96.5" y="542.5" width="60" height="35" as="geometry" />
        </mxCell>
        <mxCell id="ZD9x9Xp-bdUePuYkmJ0l-47" value="" style="line;strokeWidth=1;html=1;dashed=1;dashPattern=12 12;" vertex="1" parent="WIyWlLk6GJQsqaUBKTNV-1">
          <mxGeometry x="-797" y="102.5" width="790" height="10" as="geometry" />
        </mxCell>
        <mxCell id="ZD9x9Xp-bdUePuYkmJ0l-48" value="" style="line;strokeWidth=1;html=1;dashed=1;dashPattern=12 12;" vertex="1" parent="WIyWlLk6GJQsqaUBKTNV-1">
          <mxGeometry x="-800" y="56.25" width="790" height="10" as="geometry" />
        </mxCell>
        <mxCell id="ZD9x9Xp-bdUePuYkmJ0l-49" value="" style="edgeStyle=segmentEdgeStyle;endArrow=classic;html=1;curved=0;rounded=0;endSize=8;startSize=8;exitX=0.21;exitY=1.012;exitDx=0;exitDy=0;exitPerimeter=0;" edge="1" parent="WIyWlLk6GJQsqaUBKTNV-1" source="ZD9x9Xp-bdUePuYkmJ0l-3">
          <mxGeometry width="50" height="50" relative="1" as="geometry">
            <mxPoint x="-537" y="442.5" as="sourcePoint" />
            <mxPoint x="-477" y="382.5" as="targetPoint" />
            <Array as="points">
              <mxPoint x="-256" y="200" />
              <mxPoint x="-257" y="200" />
              <mxPoint x="-257" y="383" />
            </Array>
          </mxGeometry>
        </mxCell>
        <mxCell id="ZD9x9Xp-bdUePuYkmJ0l-50" value="" style="line;strokeWidth=1;html=1;dashed=1;dashPattern=12 12;" vertex="1" parent="WIyWlLk6GJQsqaUBKTNV-1">
          <mxGeometry x="-800" y="327.5" width="790" height="10" as="geometry" />
        </mxCell>
        <mxCell id="ZD9x9Xp-bdUePuYkmJ0l-51" value="" style="line;strokeWidth=1;html=1;dashed=1;dashPattern=12 12;" vertex="1" parent="WIyWlLk6GJQsqaUBKTNV-1">
          <mxGeometry x="-800" y="282.5" width="790" height="10" as="geometry" />
        </mxCell>
        <mxCell id="ZD9x9Xp-bdUePuYkmJ0l-52" value="&lt;font size=&quot;1&quot; style=&quot;&quot;&gt;&lt;b style=&quot;font-size: 25px;&quot;&gt;миграция данных&lt;/b&gt;&lt;/font&gt;" style="text;strokeColor=none;align=center;fillColor=none;html=1;verticalAlign=middle;whiteSpace=wrap;rounded=0;" vertex="1" parent="WIyWlLk6GJQsqaUBKTNV-1">
          <mxGeometry x="-511" y="10" width="308" height="35.51" as="geometry" />
        </mxCell>
        <mxCell id="ZD9x9Xp-bdUePuYkmJ0l-53" value="by Kovalchuk" style="text;strokeColor=none;align=center;fillColor=none;html=1;verticalAlign=middle;whiteSpace=wrap;rounded=0;" vertex="1" parent="WIyWlLk6GJQsqaUBKTNV-1">
          <mxGeometry x="-177" y="732.5" width="120" height="20" as="geometry" />
        </mxCell>
        <mxCell id="ZD9x9Xp-bdUePuYkmJ0l-54" value="0" style="text;strokeColor=none;align=center;fillColor=none;html=1;verticalAlign=middle;whiteSpace=wrap;rounded=0;fontStyle=1;fontSize=22;" vertex="1" parent="WIyWlLk6GJQsqaUBKTNV-1">
          <mxGeometry x="-817" y="15.51" width="60" height="30" as="geometry" />
        </mxCell>
        <mxCell id="ZD9x9Xp-bdUePuYkmJ0l-56" value="&lt;b&gt;Создать&amp;nbsp; скрипт переноса данных из источника в хранилище&lt;/b&gt;" style="text;strokeColor=none;align=center;fillColor=none;html=1;verticalAlign=middle;whiteSpace=wrap;rounded=0;" vertex="1" parent="WIyWlLk6GJQsqaUBKTNV-1">
          <mxGeometry x="-739" y="20" width="212" height="10" as="geometry" />
        </mxCell>
        <mxCell id="ZD9x9Xp-bdUePuYkmJ0l-57" value="DDL" style="text;strokeColor=none;align=center;fillColor=none;html=1;verticalAlign=middle;whiteSpace=wrap;rounded=0;" vertex="1" parent="WIyWlLk6GJQsqaUBKTNV-1">
          <mxGeometry x="-627" y="155.51" width="43" height="24.49" as="geometry" />
        </mxCell>
        <mxCell id="ZD9x9Xp-bdUePuYkmJ0l-58" value="DDL" style="text;strokeColor=none;align=center;fillColor=none;html=1;verticalAlign=middle;whiteSpace=wrap;rounded=0;" vertex="1" parent="WIyWlLk6GJQsqaUBKTNV-1">
          <mxGeometry x="-640" y="567.75" width="43" height="24.49" as="geometry" />
        </mxCell>
      </root>
    </mxGraphModel>
  </diagram>
</mxfile>
